<svg xmlns="http://www.w3.org/2000/svg" xml:space="preserve" width="500" height="500" data-id="lg_8vJN6SBUssnJDLsegz" data-version="1" viewBox="0 0 1500 1500"><path fill="#fff" stroke="transparent" d="M0 0h1500v1500H0z"/><g data-padding="20"><g fill="#dc2a34"><path d="M1017.712 1052.858H353.385v-439.27h227.457q12.202-10.011 25.238-19.084a469 469 0 0 1 63.617-37.023H297.173v551.485h776.752V871.915l-56.213 56.317Z"/><path d="m468.626 992.787 2.294-7.509.522-1.46 2.607-7.092.521-1.251 2.712-6.675.208-.625 3.13-6.78.625-1.355a269 269 0 0 1 7.196-13.35l.521-1.042 3.65-6.049.835-1.251 3.963-6.05.417-.52 3.963-5.528.834-1.043a178 178 0 0 1 9.804-12.098l4.901-5.318.939-1.043 4.797-5.006 1.043-1.043 4.693-4.485.521-.521 5.215-4.693 1.147-1.043 5.319-4.484.834-.626 5.215-4.172.73-.521a178 178 0 0 1 12.619-9.178l.73-.417 5.527-3.65 1.043-.73 5.945-3.65 1.355-.834 6.258-3.546v-.105l6.257-3.441 1.356-.73 6.257-3.233 1.252-.626 6.049-3.024.625-.313 6.466-3.025 1.46-.625 6.466-2.816 1.043-.417 6.258-2.608.834-.417 6.675-2.607 1.46-.521 6.779-2.503.73-.313 6.361-2.19 1.252-.418 6.779-2.294 1.46-.417 6.883-2.19h.208l6.884-2.086 1.46-.417 6.778-1.877 1.252-.418 6.674-1.668.522-.209 6.987-1.668 1.46-.313a409 409 0 0 1 22.214-4.902l1.46-.313 6.883-1.356.73-.104 6.466-1.147 1.148-.209 6.778-1.147 1.356-.208L750 804.23h.209l6.674-1.043 1.356-.209 6.57-.834 1.252-.209 6.257-.834h.521l6.466-.834 1.356-.105 6.362-.73h1.043l5.84-.625.834-.105 6.258-.521 1.251-.104 6.153-.522h.522l5.84-.521h.939l5.84-.417h1.147l5.84-.418h.105l5.736-.312h1.042l5.424-.313h.938l5.215-.209h.313l5.214-.208h6.153l.626-.105h4.693l.521-.104h5.528l4.588-.104h20.024l.73.104 5.945.104h3.233l2.503.209h5.006l.312.104h2.503l1.356.104h2.816l.73.105h.939l.208 161.023 281.896-283.147L920.41 391.034l.104 159.98c-161.858 0-451.993 75.402-451.993 441.773"/></g><path fill="transparent" stroke="transparent" stroke-width="4.808" d="M250 353.365h1000v793.27H250z"/></g></svg>